<svg xmlns="http://www.w3.org/2000/svg" xmlns:xlink="http://www.w3.org/1999/xlink" version="1.1" id="Layer_1" x="0px" y="0px" width="100%" viewBox="0 0 312 90" enable-background="new 0 0 312 90" xml:space="preserve">
<path fill="#ffffff" opacity="1.000000" stroke="none" d=" M1.000000,72.000000   C1.000000,48.375492 1.000000,24.750984 1.000000,1.000000   C59.020836,1.000000 117.041756,1.000000 175.298950,1.305702   C156.199081,4.696040 147.652191,16.577120 148.854492,32.320217   C152.297638,27.836010 155.814728,23.255491 159.331818,18.674971   C159.754349,18.986753 160.176895,19.298538 160.599426,19.610321   C157.539810,25.709303 154.480194,31.808283 151.235123,38.276962   C164.231842,40.289829 177.247849,33.552227 182.841949,23.583471   C186.870636,16.404293 187.319244,8.838407 187.000000,1.000000   C228.923294,1.000000 270.846588,1.000000 312.884949,1.000000   C312.884949,30.999737 312.884949,60.999794 312.890167,90.999924   C305.242706,91.000000 297.590057,91.000000 289.690552,90.703178   C301.572479,87.542343 307.897369,79.125862 311.173309,67.755325   C312.307983,63.816998 312.941772,60.191528 309.439697,56.810547   C305.940918,53.432705 302.467072,53.732937 298.452820,55.526718   C298.157684,55.200352 298.039490,55.069927 297.951111,54.512665   C298.196106,49.646095 298.220825,44.077145 293.757812,42.764645   C285.945160,40.467079 277.598785,39.976303 269.467468,38.786961   C268.860199,38.698135 268.086792,38.922779 267.556183,39.261227   C262.909241,42.225174 258.299988,45.248196 253.706711,48.236038   C249.466248,39.929882 243.659256,37.071625 236.323944,38.923271   C228.491013,40.900528 224.633347,47.427601 218.958160,52.305614   C219.159729,49.923149 219.542038,47.563503 220.793381,45.831875   C226.362900,38.124733 222.952652,27.978868 214.146469,26.592262   C207.944580,25.615723 202.615021,31.402468 201.893036,39.267941   C201.620453,42.237419 200.203629,45.101868 198.981567,49.077461   C190.661728,36.106548 184.003281,36.702755 175.186600,41.395630   C171.891327,38.002605 167.722885,37.726711 163.891342,39.758556   C160.250443,41.689308 157.163742,44.665134 154.384750,46.764824   C153.451996,43.848877 150.142181,40.006454 145.088638,40.869293   C140.514847,41.650219 136.911667,40.550415 132.875320,39.208916   C130.573257,38.443813 127.816597,39.052937 125.264755,39.030525   C123.740295,39.017132 121.226974,39.511257 120.873535,38.854332   C119.722992,36.715878 118.588547,34.046162 118.900436,31.780893   C119.258980,29.176754 121.166405,26.785870 122.733459,23.633759   C123.472046,24.675480 124.035492,25.314968 124.426811,26.046526   C127.709740,32.183838 133.807037,33.537807 139.784225,34.869415   C141.993637,35.361633 144.691650,35.404125 144.946136,31.903971   C145.383545,25.887922 144.463623,20.454033 139.647003,16.048294   C134.449707,11.294354 128.087311,11.055563 121.475883,10.266762   C121.142387,12.978009 120.837608,15.455860 120.499390,18.205460   C113.972610,13.472834 108.857635,12.907839 103.451164,17.511404   C100.040665,20.415424 97.497658,24.603750 95.342117,28.631580   C93.636368,31.818924 91.632126,32.033272 88.529915,31.846088   C86.129982,31.701283 82.433113,31.947708 81.429184,33.442036   C77.202209,39.733799 69.826447,38.520985 64.345192,42.290604   C64.234947,41.092495 64.063103,40.577267 64.163788,40.122364   C67.013855,27.245148 60.980297,16.691998 48.485279,13.317457   C37.574165,10.370682 27.966063,14.207970 19.036972,20.028728   C10.385477,25.668526 10.507784,34.022182 19.215948,39.889687   C17.207310,45.423611 15.255274,51.033543 13.100074,56.564304   C12.606344,57.831326 11.639532,59.212734 10.502308,59.878326   C5.693474,62.692825 2.882331,66.954254 1.000000,72.000000  z"/>
<path fill="#97DC28" opacity="1.000000" stroke="none" d=" M298.629791,55.722664   C302.467072,53.732937 305.940918,53.432705 309.439697,56.810547   C312.941772,60.191528 312.307983,63.816998 311.173309,67.755325   C307.897369,79.125862 301.572479,87.542343 289.221863,90.703178   C287.933319,91.000000 286.866669,91.000000 285.192810,90.707077   C281.256226,88.814377 277.926819,87.214607 275.092499,85.852730   C270.980164,87.603180 266.990082,89.301590 263.000000,91.000000   C262.250000,91.000000 261.500000,91.000000 260.167664,90.707001   C256.762085,88.825012 253.979462,87.156357 251.096008,85.685364   C249.906326,85.078445 248.238953,84.236008 247.236694,84.632568   C242.407379,86.543358 237.730789,88.840157 233.000000,91.000000   C231.933334,91.000000 230.866653,91.000000 229.181061,90.704376   C222.261307,87.044456 216.073502,87.227676 210.000000,91.000000   C208.933334,91.000000 207.866653,91.000000 206.190491,90.705917   C199.584366,86.533432 193.759460,87.788498 188.000000,91.000000   C186.933334,91.000000 185.866653,91.000000 184.185623,90.706589   C177.898376,89.544044 174.354340,86.040230 172.094345,80.477837   C168.720047,86.034836 164.433029,88.947777 158.160110,89.085068   C154.094727,89.174042 150.052567,90.324936 146.000000,91.000000   C144.933334,91.000000 143.866653,91.000000 142.192810,90.707062   C138.256210,88.814369 134.926804,87.214607 132.092499,85.852737   C127.980156,87.603188 123.990082,89.301598 120.000000,91.000000   C119.250000,91.000000 118.500000,91.000000 117.167343,90.706810   C110.589737,86.608749 104.768478,88.013130 99.000000,91.000000   C97.933327,91.000000 96.866661,91.000000 95.192818,90.707077   C90.923782,88.507217 87.261909,86.600266 83.849129,84.823036   C79.656555,86.838531 75.328278,88.919266 71.000000,91.000000   C69.933327,91.000000 68.866661,91.000000 67.178566,90.703323   C63.880863,89.281601 60.561489,88.794121 58.672401,86.888649   C55.488605,83.677231 52.918636,82.375397 49.245167,85.819809   C48.469353,86.547249 47.165180,86.768227 46.064411,87.082161   C41.384480,88.416870 36.689491,89.698799 32.000000,91.000000   C29.299986,91.000000 26.599974,91.000000 23.210741,90.696594   C13.028803,89.062775 4.882052,85.719803 1.000000,76.000000   C1.000000,74.933327 1.000000,73.866661 1.000000,72.399994   C2.882331,66.954254 5.693474,62.692825 10.502308,59.878326   C11.639532,59.212734 12.606344,57.831326 13.100074,56.564304   C15.255274,51.033543 17.207310,45.423611 19.215948,39.889687   C10.507784,34.022182 10.385477,25.668526 19.036972,20.028728   C27.966063,14.207970 37.574165,10.370682 48.485279,13.317457   C60.980297,16.691998 67.013855,27.245148 64.163788,40.122364   C64.063103,40.577267 64.234947,41.092495 64.345192,42.290604   C69.826447,38.520985 77.202209,39.733799 81.429184,33.442036   C82.433113,31.947708 86.129982,31.701283 88.529915,31.846088   C91.632126,32.033272 93.636368,31.818924 95.342117,28.631580   C97.497658,24.603750 100.040665,20.415424 103.451164,17.511404   C108.857635,12.907839 113.972610,13.472834 120.499390,18.205460   C120.837608,15.455860 121.142387,12.978009 121.475883,10.266762   C128.087311,11.055563 134.449707,11.294354 139.647003,16.048294   C144.463623,20.454033 145.383545,25.887922 144.946136,31.903971   C144.691650,35.404125 141.993637,35.361633 139.784225,34.869415   C133.807037,33.537807 127.709740,32.183838 124.426811,26.046526   C124.035492,25.314968 123.472046,24.675480 122.733459,23.633759   C121.166405,26.785870 119.258980,29.176754 118.900436,31.780893   C118.588547,34.046162 119.722992,36.715878 120.873535,38.854332   C121.226974,39.511257 123.740295,39.017132 125.264755,39.030525   C127.816597,39.052937 130.573257,38.443813 132.875320,39.208916   C136.911667,40.550415 140.514847,41.650219 145.088638,40.869293   C150.142181,40.006454 153.451996,43.848877 154.384750,46.764824   C157.163742,44.665134 160.250443,41.689308 163.891342,39.758556   C167.722885,37.726711 171.891327,38.002605 175.186600,41.395630   C184.003281,36.702755 190.661728,36.106548 198.981567,49.077461   C200.203629,45.101868 201.620453,42.237419 201.893036,39.267941   C202.615021,31.402468 207.944580,25.615723 214.146469,26.592262   C222.952652,27.978868 226.362900,38.124733 220.793381,45.831875   C219.542038,47.563503 219.159729,49.923149 218.958160,52.305614   C224.633347,47.427601 228.491013,40.900528 236.323944,38.923271   C243.659256,37.071625 249.466248,39.929882 253.706711,48.236038   C258.299988,45.248196 262.909241,42.225174 267.556183,39.261227   C268.086792,38.922779 268.860199,38.698135 269.467468,38.786961   C277.598785,39.976303 285.945160,40.467079 293.757812,42.764645   C298.220825,44.077145 298.196106,49.646095 297.747803,54.630299   C297.498932,55.589649 297.483246,56.004539 297.467529,56.419426   C297.854950,56.187176 298.242371,55.954922 298.629791,55.722664  M57.319469,40.310841   C60.405514,28.773403 55.972843,20.814833 44.903358,19.316141   C36.109707,18.125576 28.088072,20.967537 21.345795,26.720749   C19.997431,27.871311 19.707697,30.262495 18.929834,32.081635   C19.391954,32.310467 19.854074,32.539299 20.316195,32.768127   C21.766319,31.733603 23.081572,30.344284 24.692211,29.732002   C29.269514,27.991943 33.885967,25.685055 38.638599,25.247385   C44.440460,24.713091 48.551548,29.775452 48.409767,35.524689   C48.225796,42.984386 41.088402,49.185806 32.538132,48.568275   C34.933468,43.746536 37.305973,39.232700 39.403885,34.594666   C40.068840,33.124592 40.001247,31.323172 40.268887,29.673386   C38.076801,29.658199 35.745934,29.184126 33.741760,29.790264   C32.420757,30.189789 31.252039,31.991507 30.562325,33.428085   C27.110785,40.617157 23.496000,47.760372 20.632431,55.187229   C18.866661,59.766872 17.147758,63.596504 12.691612,66.532806   C5.490969,71.277550 6.349413,77.763512 14.196660,81.324059   C22.637218,85.153809 31.370184,84.649017 40.068241,82.224884   C53.883549,78.374573 57.855152,71.438408 53.911839,57.450932   C56.221054,57.315041 58.409836,57.186237 60.321960,57.073715   C59.507149,62.403088 58.111824,67.305542 58.144939,72.198318   C58.212421,82.167999 66.161415,86.643257 75.137009,82.292206   C80.564552,79.661125 82.786278,74.656540 84.819092,69.487617   C85.420212,67.959114 85.993118,66.419518 86.578949,64.884995   C86.998726,64.968544 87.418503,65.052086 87.838280,65.135628   C88.706078,71.230469 85.771790,78.757111 92.702751,82.662018   C99.772186,86.644951 104.823029,81.492607 109.779861,77.400551   C114.680817,83.958206 117.664230,85.647316 122.535461,82.942009   C126.971199,80.478569 130.673355,76.694237 134.637238,73.541145   C137.273987,85.046356 142.533249,86.779839 154.441376,79.890358   C159.822006,83.935043 163.044388,82.991882 166.079559,76.934082   C169.207169,70.691750 172.678070,64.621574 175.988876,58.470768   C176.922714,56.735870 177.821777,54.982258 178.736786,53.237228   C179.657639,53.837456 180.578506,54.437683 181.499374,55.037907   C181.201599,57.664909 181.011017,60.309589 180.581390,62.914848   C179.906570,67.006889 178.599045,71.050339 178.407425,75.153961   C178.074982,82.273857 182.817856,85.723907 189.497940,83.210655   C192.941010,81.915268 195.968521,79.515381 199.436523,77.465164   C201.350952,81.579079 204.548019,84.976357 209.365616,83.735909   C213.515121,82.667488 217.240768,79.952782 221.260025,77.912018   C226.099319,84.147690 230.212418,85.966919 237.063446,82.558388   C242.691162,79.758469 247.525833,75.364563 252.658966,71.714867   C252.632278,71.613945 252.836578,72.050224 252.850998,72.492691   C253.005692,77.238091 254.035553,81.597954 259.071106,83.417725   C263.989929,85.195297 267.804688,82.524590 271.219421,79.497650   C273.401428,77.563461 275.174042,75.167419 277.458008,72.611572   C277.782562,74.112419 277.931610,75.057968 278.193329,75.971199   C280.288452,83.281525 285.576904,85.881538 292.396912,82.639931   C300.321930,78.873108 303.873993,71.860748 305.492279,63.675613   C305.661926,62.817482 304.854309,61.766140 304.050690,59.584244   C302.717834,61.807854 302.057007,63.009972 301.302551,64.150085   C299.118500,67.450485 297.153503,70.951012 294.565948,73.902557   C293.502472,75.115646 290.633911,76.028351 289.375702,75.426811   C288.126526,74.829582 287.242279,72.131325 287.314362,70.400970   C287.444214,67.282532 288.339294,64.183327 289.041168,61.104908   C289.741241,58.034374 290.876282,55.033287 291.253815,51.932739   C291.418030,50.584057 290.437531,48.115982 289.492157,47.844498   C288.113342,47.448555 286.046906,48.222027 284.735992,49.150078   C283.351044,50.130554 282.508423,51.877060 281.360046,53.378986   C276.101410,43.080456 268.757751,42.313904 261.271301,51.105316   C260.089844,52.492725 259.233612,54.152714 258.097900,55.584248   C253.981750,60.772579 250.023605,66.112198 245.561264,70.987846   C243.626221,73.102127 240.775543,74.674339 238.042145,75.685860   C234.749817,76.904243 232.005386,75.466499 232.916672,71.605431   C234.007095,66.985420 235.661957,62.402367 237.792206,58.165222   C238.835831,56.089405 241.507172,54.831932 243.441818,53.204082   C244.123917,55.447235 244.791168,57.695171 245.509140,59.926785   C245.588394,60.173145 245.957886,60.326126 246.193924,60.521034   C248.830353,55.950611 248.390854,49.853569 245.213104,46.914104   C242.091324,44.026409 236.335587,43.920097 232.577927,48.172058   C228.379272,52.923016 225.424805,58.783531 222.006973,64.210365   C220.251892,66.997108 219.081940,70.288643 216.865097,72.602386   C215.278473,74.258385 212.392105,74.669075 210.085632,75.635384   C209.503586,73.190552 208.146973,70.627045 208.499603,68.325401   C209.250595,63.423710 211.158432,58.705494 212.021530,53.811451   C212.334778,52.035194 211.021332,49.972057 210.450089,48.039818   C208.472794,48.930550 205.549911,49.294819 204.703445,50.815155   C202.550842,54.681446 201.380920,59.086521 199.714264,63.234394   C198.427063,66.437912 197.380356,69.852661 195.455368,72.640961   C194.356781,74.232216 191.712784,74.756538 189.764633,75.761269   C189.306976,73.648346 188.205795,71.433365 188.521423,69.443062   C189.248566,64.857819 190.886887,60.422920 191.732513,55.848824   C192.457596,51.926765 191.991989,48.031338 187.950729,45.866573   C183.840012,43.664597 180.468033,45.529175 177.750168,48.558098   C175.425797,51.148510 173.425980,54.041214 171.409149,56.889816   C170.800079,57.750069 170.613770,58.909634 170.233810,59.932095   C169.685577,59.453850 169.137329,58.975605 168.589081,58.497360   C169.353378,56.536293 170.130005,54.579918 170.878891,52.612984   C171.846344,50.072052 173.117920,46.848736 169.888687,45.732159   C168.333206,45.194317 164.743423,47.156902 163.790344,48.916451   C161.282913,53.545685 159.834488,58.735531 157.731415,63.601440   C156.368423,66.754959 155.051620,70.130486 152.847229,72.647232   C151.378342,74.324249 148.382416,74.663773 146.069946,75.601913   C145.490494,73.301994 144.238754,70.928947 144.479233,68.718224   C144.907074,64.785065 146.248642,60.952682 147.187057,57.073074   C147.614853,55.304375 148.377121,53.500900 148.274017,51.755356   C148.188583,50.308941 147.378723,48.194664 146.297302,47.716625   C145.205246,47.233879 143.115982,48.047741 141.949951,48.933678   C140.481689,50.049248 139.506851,51.814251 138.218552,53.424767   C133.691910,43.450420 126.365105,42.134190 119.248993,50.235897   C116.150024,53.764084 114.459358,58.497822 111.892685,62.533699   C109.259682,66.673866 106.474052,70.737663 103.440849,74.587166   C102.738007,75.479156 100.442101,76.009743 99.458969,75.526718   C98.541115,75.075752 97.739952,72.902504 98.011230,71.752419   C100.062889,63.054592 102.338852,54.407520 104.724037,45.794239   C104.937042,45.025040 106.355011,44.443939 107.325836,44.059513   C109.569481,43.171066 111.882202,42.457073 114.166908,41.672318   C112.348701,40.088200 110.530487,38.504078 108.348770,36.603252   C110.170128,33.351391 112.375626,29.642889 114.313469,25.799435   C114.824928,24.785019 115.020203,22.943403 114.440056,22.223070   C113.781837,21.405796 111.863968,20.829540 110.894989,21.199490   C108.967819,21.935261 106.903717,23.059172 105.642815,24.624245   C103.572655,27.193785 101.979622,30.178757 100.395157,33.102234   C96.873238,39.600452 96.344528,40.044472 89.234871,38.545013   C86.767769,38.024689 84.299026,37.896221 84.366302,40.636215   C84.410141,42.421368 86.522675,44.626205 88.280441,45.741951   C89.563194,46.556187 91.778496,45.901264 94.370560,45.901264   C92.326797,51.303848 90.528145,56.058479 88.729500,60.813110   C88.201920,60.654308 87.674339,60.495506 87.146751,60.336704   C86.843300,58.553047 86.560791,56.765533 86.232933,54.986378   C84.355835,44.800056 75.195152,41.215740 68.007294,48.680832   C62.493038,54.407764 55.951057,52.952469 49.695751,53.956543   C48.287113,54.182655 46.624523,52.826675 45.947807,52.551868   C49.809315,48.539562 53.412018,44.796169 57.319469,40.310841  M215.109604,42.467358   C215.559830,41.595345 216.487640,40.651062 216.368729,39.865173   C216.041306,37.701469 215.275421,35.604118 214.682999,33.480522   C213.125473,33.997833 210.493530,34.183285 210.212006,35.094727   C209.369888,37.821136 209.447723,40.831696 209.166397,43.731319   C210.992462,43.509262 212.818527,43.287209 215.109604,42.467358  z"/>
<path fill="#93DB17" opacity="1.000000" stroke="none" d=" M186.541931,1.000000   C187.319244,8.838407 186.870636,16.404293 182.841949,23.583471   C177.247849,33.552227 164.231842,40.289829 151.235123,38.276962   C154.480194,31.808283 157.539810,25.709303 160.599426,19.610321   C160.176895,19.298538 159.754349,18.986753 159.331818,18.674971   C155.814728,23.255491 152.297638,27.836010 148.854492,32.320217   C147.652191,16.577120 156.199081,4.696040 175.767609,1.305702   C179.361282,1.000000 182.722580,1.000000 186.541931,1.000000  M162.358093,17.693514   C162.565674,17.797083 162.765991,17.928909 162.985687,17.985342   C163.044266,18.000389 163.162140,17.784609 163.252808,17.674809   C163.034042,17.559528 162.815277,17.444248 162.358093,17.693514  z"/>
<path fill="#ffffff" opacity="1.000000" stroke="none" d=" M146.468658,91.000000   C150.052567,90.324936 154.094727,89.174042 158.160110,89.085068   C164.433029,88.947777 168.720047,86.034836 172.094345,80.477837   C174.354340,86.040230 177.898376,89.544044 183.785629,90.706589   C171.645767,91.000000 159.291550,91.000000 146.468658,91.000000  z"/>
<path fill="#ffffff" opacity="1.000000" stroke="none" d=" M32.468658,91.000000   C36.689491,89.698799 41.384480,88.416870 46.064411,87.082161   C47.165180,86.768227 48.469353,86.547249 49.245167,85.819809   C52.918636,82.375397 55.488605,83.677231 58.672401,86.888649   C60.561489,88.794121 63.880863,89.281601 66.778572,90.703323   C55.645771,91.000000 44.291546,91.000000 32.468658,91.000000  z"/>
<path fill="#ffffff" opacity="1.000000" stroke="none" d=" M1.000000,76.472664   C4.882052,85.719803 13.028803,89.062775 22.760761,90.696594   C15.756139,91.000000 8.512278,91.000000 1.000000,91.000000   C1.000000,86.318481 1.000000,81.631905 1.000000,76.472664  z"/>
<path fill="#ffffff" opacity="1.000000" stroke="none" d=" M233.468658,91.000000   C237.730789,88.840157 242.407379,86.543358 247.236694,84.632568   C248.238953,84.236008 249.906326,85.078445 251.096008,85.685364   C253.979462,87.156357 256.762085,88.825012 259.792664,90.707001   C251.312439,91.000000 242.624863,91.000000 233.468658,91.000000  z"/>
<path fill="#ffffff" opacity="1.000000" stroke="none" d=" M71.468636,91.000000   C75.328278,88.919266 79.656555,86.838531 83.849129,84.823036   C87.261909,86.600266 90.923782,88.507217 94.792824,90.707077   C87.312424,91.000000 79.624847,91.000000 71.468636,91.000000  z"/>
<path fill="#ffffff" opacity="1.000000" stroke="none" d=" M120.468582,91.000000   C123.990082,89.301598 127.980156,87.603188 132.092499,85.852737   C134.926804,87.214607 138.256210,88.814369 141.792816,90.707062   C134.979050,91.000000 127.958107,91.000000 120.468582,91.000000  z"/>
<path fill="#ffffff" opacity="1.000000" stroke="none" d=" M263.468567,91.000000   C266.990082,89.301590 270.980164,87.603180 275.092499,85.852730   C277.926819,87.214607 281.256226,88.814377 284.792816,90.707077   C277.979034,91.000000 270.958099,91.000000 263.468567,91.000000  z"/>
<path fill="#ffffff" opacity="1.000000" stroke="none" d=" M210.468277,91.000000   C216.073502,87.227676 222.261307,87.044456 228.781067,90.704376   C222.978851,91.000000 216.957703,91.000000 210.468277,91.000000  z"/>
<path fill="#ffffff" opacity="1.000000" stroke="none" d=" M188.467941,91.000000   C193.759460,87.788498 199.584366,86.533432 205.790497,90.705917   C200.311966,91.000000 194.623917,91.000000 188.467941,91.000000  z"/>
<path fill="#ffffff" opacity="1.000000" stroke="none" d=" M99.467941,91.000000   C104.768478,88.013130 110.589737,86.608749 116.792343,90.706810   C111.311958,91.000000 105.623917,91.000000 99.467941,91.000000  z"/>
<path fill="#037C4A" opacity="1.000000" stroke="none" d=" M57.167099,40.681808   C53.412018,44.796169 49.809315,48.539562 45.947807,52.551868   C46.624523,52.826675 48.287113,54.182655 49.695751,53.956543   C55.951057,52.952469 62.493038,54.407764 68.007294,48.680832   C75.195152,41.215740 84.355835,44.800056 86.232933,54.986378   C86.560791,56.765533 86.843300,58.553047 87.146751,60.336704   C87.674339,60.495506 88.201920,60.654308 88.729500,60.813110   C90.528145,56.058479 92.326797,51.303848 94.370560,45.901264   C91.778496,45.901264 89.563194,46.556187 88.280441,45.741951   C86.522675,44.626205 84.410141,42.421368 84.366302,40.636215   C84.299026,37.896221 86.767769,38.024689 89.234871,38.545013   C96.344528,40.044472 96.873238,39.600452 100.395157,33.102234   C101.979622,30.178757 103.572655,27.193785 105.642815,24.624245   C106.903717,23.059172 108.967819,21.935261 110.894989,21.199490   C111.863968,20.829540 113.781837,21.405796 114.440056,22.223070   C115.020203,22.943403 114.824928,24.785019 114.313469,25.799435   C112.375626,29.642889 110.170128,33.351391 108.348770,36.603252   C110.530487,38.504078 112.348701,40.088200 114.166908,41.672318   C111.882202,42.457073 109.569481,43.171066 107.325836,44.059513   C106.355011,44.443939 104.937042,45.025040 104.724037,45.794239   C102.338852,54.407520 100.062889,63.054592 98.011230,71.752419   C97.739952,72.902504 98.541115,75.075752 99.458969,75.526718   C100.442101,76.009743 102.738007,75.479156 103.440849,74.587166   C106.474052,70.737663 109.259682,66.673866 111.892685,62.533699   C114.459358,58.497822 116.150024,53.764084 119.248993,50.235897   C126.365105,42.134190 133.691910,43.450420 138.218552,53.424767   C139.506851,51.814251 140.481689,50.049248 141.949951,48.933678   C143.115982,48.047741 145.205246,47.233879 146.297302,47.716625   C147.378723,48.194664 148.188583,50.308941 148.274017,51.755356   C148.377121,53.500900 147.614853,55.304375 147.187057,57.073074   C146.248642,60.952682 144.907074,64.785065 144.479233,68.718224   C144.238754,70.928947 145.490494,73.301994 146.069946,75.601913   C148.382416,74.663773 151.378342,74.324249 152.847229,72.647232   C155.051620,70.130486 156.368423,66.754959 157.731415,63.601440   C159.834488,58.735531 161.282913,53.545685 163.790344,48.916451   C164.743423,47.156902 168.333206,45.194317 169.888687,45.732159   C173.117920,46.848736 171.846344,50.072052 170.878891,52.612984   C170.130005,54.579918 169.353378,56.536293 168.589081,58.497360   C169.137329,58.975605 169.685577,59.453850 170.233810,59.932095   C170.613770,58.909634 170.800079,57.750069 171.409149,56.889816   C173.425980,54.041214 175.425797,51.148510 177.750168,48.558098   C180.468033,45.529175 183.840012,43.664597 187.950729,45.866573   C191.991989,48.031338 192.457596,51.926765 191.732513,55.848824   C190.886887,60.422920 189.248566,64.857819 188.521423,69.443062   C188.205795,71.433365 189.306976,73.648346 189.764648,75.761269   C191.712784,74.756538 194.356781,74.232216 195.455368,72.640961   C197.380356,69.852661 198.427063,66.437912 199.714264,63.234394   C201.380920,59.086521 202.550842,54.681446 204.703445,50.815155   C205.549911,49.294819 208.472794,48.930550 210.450073,48.039818   C211.021332,49.972057 212.334778,52.035194 212.021530,53.811451   C211.158432,58.705494 209.250595,63.423710 208.499603,68.325401   C208.146973,70.627045 209.503586,73.190552 210.085632,75.635391   C212.392105,74.669075 215.278473,74.258385 216.865097,72.602386   C219.081940,70.288643 220.251892,66.997108 222.006973,64.210365   C225.424805,58.783531 228.379272,52.923016 232.577927,48.172058   C236.335587,43.920097 242.091324,44.026409 245.213104,46.914104   C248.390854,49.853569 248.830353,55.950611 246.193344,60.521725   C245.957886,60.326126 245.588394,60.173145 245.509140,59.926785   C244.791168,57.695171 244.123917,55.447235 243.441818,53.204082   C241.507172,54.831932 238.835831,56.089405 237.792206,58.165222   C235.661957,62.402367 234.007095,66.985420 232.916672,71.605431   C232.005386,75.466499 234.749817,76.904243 238.042145,75.685860   C240.775543,74.674339 243.626221,73.102127 245.561264,70.987846   C250.023605,66.112198 253.981750,60.772579 258.097900,55.584248   C259.233612,54.152714 260.089844,52.492725 261.271301,51.105316   C268.757751,42.313904 276.101410,43.080456 281.360046,53.378986   C282.508423,51.877060 283.351044,50.130554 284.735992,49.150078   C286.046906,48.222027 288.113342,47.448555 289.492157,47.844498   C290.437531,48.115982 291.418030,50.584057 291.253815,51.932739   C290.876282,55.033287 289.741241,58.034374 289.041168,61.104908   C288.339294,64.183327 287.444214,67.282532 287.314362,70.400970   C287.242279,72.131325 288.126526,74.829582 289.375702,75.426811   C290.633911,76.028351 293.502472,75.115646 294.565948,73.902557   C297.153503,70.951012 299.118500,67.450485 301.302551,64.150085   C302.057007,63.009972 302.717834,61.807854 304.050690,59.584244   C304.854309,61.766140 305.661926,62.817482 305.492279,63.675613   C303.873993,71.860748 300.321930,78.873108 292.396912,82.639931   C285.576904,85.881538 280.288452,83.281525 278.193329,75.971199   C277.931610,75.057968 277.782562,74.112419 277.458008,72.611572   C275.174042,75.167419 273.401428,77.563461 271.219421,79.497650   C267.804688,82.524590 263.989929,85.195297 259.071106,83.417725   C254.035553,81.597954 253.005692,77.238091 252.850998,72.492691   C252.836578,72.050224 252.632278,71.613945 252.658966,71.714867   C247.525833,75.364563 242.691162,79.758469 237.063446,82.558388   C230.212418,85.966919 226.099319,84.147690 221.260025,77.912018   C217.240768,79.952782 213.515121,82.667488 209.365616,83.735909   C204.548019,84.976357 201.350952,81.579079 199.436523,77.465164   C195.968521,79.515381 192.941010,81.915268 189.497940,83.210655   C182.817856,85.723907 178.074982,82.273857 178.407425,75.153961   C178.599045,71.050339 179.906570,67.006889 180.581390,62.914848   C181.011017,60.309589 181.201599,57.664909 181.499374,55.037907   C180.578506,54.437683 179.657639,53.837456 178.736786,53.237228   C177.821777,54.982258 176.922714,56.735870 175.988876,58.470768   C172.678070,64.621574 169.207169,70.691750 166.079559,76.934082   C163.044388,82.991882 159.822006,83.935043 154.441376,79.890358   C142.533249,86.779839 137.273987,85.046356 134.637238,73.541145   C130.673355,76.694237 126.971199,80.478569 122.535461,82.942009   C117.664230,85.647316 114.680817,83.958206 109.779861,77.400551   C104.823029,81.492607 99.772186,86.644951 92.702751,82.662018   C85.771790,78.757111 88.706078,71.230469 87.838280,65.135628   C87.418503,65.052086 86.998726,64.968544 86.578949,64.884995   C85.993118,66.419518 85.420212,67.959114 84.819092,69.487617   C82.786278,74.656540 80.564552,79.661125 75.137009,82.292206   C66.161415,86.643257 58.212421,82.167999 58.144939,72.198318   C58.111824,67.305542 59.507149,62.403088 60.321960,57.073715   C58.409836,57.186237 56.221054,57.315041 53.911839,57.450932   C57.855152,71.438408 53.883549,78.374573 40.068241,82.224884   C31.370184,84.649017 22.637218,85.153809 14.196660,81.324059   C6.349413,77.763512 5.490969,71.277550 12.691612,66.532806   C17.147758,63.596504 18.866661,59.766872 20.632431,55.187229   C23.496000,47.760372 27.110785,40.617157 30.562325,33.428085   C31.252039,31.991507 32.420757,30.189789 33.741760,29.790264   C35.745934,29.184126 38.076801,29.658199 40.268887,29.673386   C40.001247,31.323172 40.068840,33.124592 39.403885,34.594666   C37.305973,39.232700 34.933468,43.746536 32.538132,48.568275   C41.088402,49.185806 48.225796,42.984386 48.409767,35.524689   C48.551548,29.775452 44.440460,24.713091 38.638599,25.247385   C33.885967,25.685055 29.269514,27.991943 24.692211,29.732002   C23.081572,30.344284 21.766319,31.733603 20.316195,32.768127   C19.854074,32.539299 19.391954,32.310467 18.929834,32.081635   C19.707697,30.262495 19.997431,27.871311 21.345795,26.720749   C28.088072,20.967537 36.109707,18.125576 44.903358,19.316141   C55.972843,20.814833 60.405514,28.773403 57.167099,40.681808  M43.806244,61.648937   C39.100895,57.442451 33.425903,60.259693 30.714918,62.719185   C27.545694,65.594391 27.127649,71.502113 25.516043,76.094223   C26.093666,76.663635 26.671288,77.233055 27.248909,77.802475   C31.981766,75.858917 36.972343,74.361603 41.363144,71.825775   C44.672340,69.914597 46.109283,66.350616 43.806244,61.648937  M67.977264,68.647499   C67.820740,72.094185 67.597382,75.734383 72.454636,75.914246   C76.685661,76.070930 82.124115,67.411613 80.649788,63.377663   C79.646286,60.631973 78.963905,57.768925 77.848877,53.974792   C76.638069,54.619747 74.091415,55.132084 73.165756,56.639698   C71.038681,60.104038 69.700951,64.053024 67.977264,68.647499  M272.300781,53.737049   C269.762848,59.444553 267.129395,65.113274 264.781342,70.897858   C264.391144,71.859177 264.953949,73.549698 265.653290,74.460022   C265.980957,74.886513 267.831512,74.540863 268.736145,74.061996   C274.831726,70.835289 278.790100,61.407127 276.981140,54.760693   C276.308075,52.287659 275.151733,51.195965 272.300781,53.737049  M133.625519,53.536118   C132.178482,53.611141 129.758743,53.197392 129.436935,53.837822   C126.640091,59.403980 124.124229,65.120567 121.781219,70.896431   C121.391235,71.857796 122.241425,73.322250 122.518539,74.554230   C123.868797,74.221107 125.502655,74.263741 126.523056,73.493584   C132.911285,68.672020 135.562531,62.296677 133.625519,53.536118  z"/>
<path fill="#067E49" opacity="1.000000" stroke="none" d=" M214.877106,42.766258   C212.818527,43.287209 210.992462,43.509262 209.166382,43.731316   C209.447723,40.831696 209.369888,37.821136 210.212006,35.094727   C210.493530,34.183285 213.125473,33.997833 214.682999,33.480522   C215.275421,35.604118 216.041306,37.701469 216.368729,39.865173   C216.487640,40.651062 215.559830,41.595345 214.877106,42.766258  z"/>
<path fill="#ffffff" opacity="1.000000" stroke="none" d=" M298.452820,55.526722   C298.242371,55.954922 297.854950,56.187176 297.467529,56.419426   C297.483246,56.004539 297.498932,55.589649 297.717957,55.057129   C298.039490,55.069927 298.157684,55.200352 298.452820,55.526722  z"/>
<path fill="#ffffff" opacity="1.000000" stroke="none" d=" M162.477295,17.511242   C162.815277,17.444248 163.034042,17.559528 163.252808,17.674805   C163.162140,17.784609 163.044266,18.000389 162.985687,17.985342   C162.765991,17.928909 162.565674,17.797083 162.477295,17.511242  z"/>
<path fill="#94DA2A" opacity="1.000000" stroke="none" d=" M44.036842,61.984856   C46.109283,66.350616 44.672340,69.914597 41.363144,71.825775   C36.972343,74.361603 31.981766,75.858917 27.248909,77.802475   C26.671288,77.233055 26.093666,76.663635 25.516043,76.094223   C27.127649,71.502113 27.545694,65.594391 30.714918,62.719185   C33.425903,60.259693 39.100895,57.442451 44.036842,61.984856  z"/>
<path fill="#94DA2A" opacity="1.000000" stroke="none" d=" M68.010056,68.226402   C69.700951,64.053024 71.038681,60.104038 73.165756,56.639698   C74.091415,55.132084 76.638069,54.619747 77.848877,53.974792   C78.963905,57.768925 79.646286,60.631973 80.649788,63.377663   C82.124115,67.411613 76.685661,76.070930 72.454636,75.914246   C67.597382,75.734383 67.820740,72.094185 68.010056,68.226402  z"/>
<path fill="#94D92A" opacity="1.000000" stroke="none" d=" M272.557739,53.465225   C275.151733,51.195965 276.308075,52.287659 276.981140,54.760693   C278.790100,61.407127 274.831726,70.835289 268.736145,74.061996   C267.831512,74.540863 265.980957,74.886513 265.653290,74.460022   C264.953949,73.549698 264.391144,71.859177 264.781342,70.897858   C267.129395,65.113274 269.762848,59.444553 272.557739,53.465225  z"/>
<path fill="#94D92A" opacity="1.000000" stroke="none" d=" M133.763824,53.928226   C135.562531,62.296677 132.911285,68.672020 126.523056,73.493584   C125.502655,74.263741 123.868797,74.221107 122.518539,74.554230   C122.241425,73.322250 121.391235,71.857796 121.781219,70.896431   C124.124229,65.120567 126.640091,59.403980 129.436935,53.837822   C129.758743,53.197392 132.178482,53.611141 133.763824,53.928226  z"/>
</svg>